<?xml version="1.0" standalone="no"?>
<!DOCTYPE svg PUBLIC "-//W3C//DTD SVG 20010904//EN"
 "http://www.w3.org/TR/2001/REC-SVG-20010904/DTD/svg10.dtd">
<svg version="1.0" xmlns="http://www.w3.org/2000/svg"
 width="687.000000pt" height="687.000000pt" viewBox="0 0 687.000000 687.000000"
 preserveAspectRatio="xMidYMid meet">

<g transform="translate(0.000000,687.000000) scale(0.100000,-0.100000)"
fill="#000000" stroke="none">
<path d="M2892 6834 c-66 -33 -135 -110 -161 -180 -20 -53 -21 -74 -21 -697
l0 -642 28 -60 c34 -72 87 -127 156 -163 l51 -27 378 -3 377 -3 -45 -87 c-110
-213 -298 -367 -530 -434 -67 -19 -103 -23 -225 -23 -154 0 -240 17 -345 66
-53 25 -80 24 -303 -10 -79 -12 -146 -20 -149 -18 -2 3 23 43 56 90 91 128 97
158 45 228 -42 56 -92 163 -120 256 -24 77 -27 105 -27 228 0 123 3 151 27
228 59 198 183 372 334 472 l42 28 0 128 0 129 -52 -26 c-288 -145 -484 -401
-565 -736 -27 -113 -24 -354 6 -472 26 -99 66 -202 106 -270 l27 -46 -125
-175 c-69 -96 -128 -188 -132 -204 -8 -40 19 -97 56 -116 38 -20 59 -19 286
14 448 67 388 63 462 35 128 -48 195 -59 371 -59 175 0 246 11 373 59 337 127
587 408 678 761 19 75 23 116 23 250 0 143 -3 171 -27 265 -87 334 -328 609
-643 736 -103 42 -237 73 -311 74 l-53 0 0 70 c0 81 15 113 62 129 44 16 1823
15 1867 0 62 -22 61 -7 61 -671 l0 -603 -24 -30 -24 -30 -244 -5 c-169 -3
-250 -9 -265 -18 -61 -34 -69 -101 -23 -192 17 -33 28 -60 24 -60 -3 0 -38 27
-78 60 -40 33 -77 60 -83 60 -6 0 -14 -19 -17 -43 -4 -24 -15 -72 -26 -108
-11 -35 -20 -69 -20 -75 0 -6 66 -65 146 -130 81 -66 197 -160 258 -210 61
-50 121 -96 133 -102 66 -36 163 25 163 102 0 14 -52 129 -115 255 l-114 229
152 4 c141 3 156 5 202 30 64 33 120 89 153 153 l27 50 3 651 c3 639 2 653
-18 707 -27 73 -97 149 -165 181 l-54 26 -988 0 -989 0 -52 -26z m233 -659
c33 -9 93 -31 132 -50 288 -135 470 -408 490 -732 l6 -104 -382 3 -383 3 -24
28 -24 28 0 426 0 426 63 -6 c34 -4 89 -13 122 -22z"/>
<path d="M424 5105 c-85 -20 -187 -81 -251 -148 -116 -121 -163 -238 -163
-407 0 -94 4 -121 30 -202 90 -273 267 -451 482 -483 173 -26 389 134 499 368
66 143 89 348 53 475 -56 196 -208 348 -395 397 -65 18 -185 18 -255 0z"/>
<path d="M6196 5105 c-171 -47 -323 -191 -381 -362 -38 -110 -37 -267 0 -392
93 -308 353 -525 576 -482 201 40 377 232 453 495 96 331 -77 659 -391 740
-73 19 -189 19 -257 1z"/>
<path d="M408 3657 c-119 -34 -197 -152 -183 -279 2 -24 9 -110 15 -193 6 -82
15 -208 20 -280 6 -71 21 -294 35 -495 55 -803 56 -818 90 -876 23 -39 78 -86
130 -110 11 -5 357 -11 794 -14 l773 -5 75 -215 c406 -1167 382 -1110 483
-1162 125 -66 275 -16 342 115 28 55 23 129 -36 522 -26 171 -51 339 -56 375
-6 36 -21 142 -35 235 -45 314 -85 576 -91 603 -24 96 -120 209 -222 261 -92
46 -161 61 -289 61 l-114 0 16 30 c9 18 15 55 15 97 0 57 -5 76 -30 120 -47
82 -107 116 -236 132 -43 6 -205 26 -359 46 -154 20 -302 39 -328 43 l-49 7
-68 205 c-115 347 -214 542 -335 665 -38 40 -91 81 -116 93 -58 28 -176 37
-241 19z"/>
<path d="M6303 3660 c-194 -41 -366 -303 -525 -800 -58 -182 -61 -190 -74
-190 -6 0 -119 -14 -250 -30 -131 -17 -311 -40 -398 -51 -87 -11 -173 -26
-191 -33 -117 -49 -186 -202 -140 -313 8 -19 15 -37 15 -39 0 -2 -52 -4 -114
-4 -183 0 -306 -47 -408 -157 -53 -57 -83 -112 -97 -175 -10 -43 -30 -171 -76
-493 -14 -93 -34 -231 -45 -305 -11 -74 -32 -214 -46 -310 -14 -96 -34 -233
-45 -305 -33 -215 -34 -240 -14 -291 38 -100 130 -164 238 -164 72 0 113 17
171 70 36 33 51 58 76 128 29 79 225 639 368 1049 l57 162 775 3 c773 3 775 3
815 25 53 28 100 78 121 128 10 23 20 88 25 155 4 63 13 180 19 260 21 296 50
700 60 850 6 85 15 207 20 270 19 232 22 344 11 385 -35 132 -188 209 -348
175z"/>
<path d="M2360 2570 l0 -170 455 0 455 0 0 -1200 0 -1200 170 0 170 0 0 1200
0 1200 455 0 455 0 0 170 0 170 -1080 0 -1080 0 0 -170z"/>
</g>
</svg>
